#!OML:ASF F:\VICON\USERDATA\INSTALL\rory3\rory3.ASF
:FULLY-SPECIFIED
:DEGREES
1060
root 0.700107 17.5107 2.77596 0.0404419 14.1672 -5.38888
lowerback 5.55798 5.94485 2.80746
upperback -0.742838 7.98087 -4.63833
thorax -2.82003 3.91672 -6.96662
lowerneck -31.4003 -10.4221 -10.3164
upperneck 0.996114 -10.9056 12.2568
head 6.29656 -4.19193 4.15921
rclavicle -9.30312e-014 2.22639e-014
rhumerus 73.5429 -17.6508 -41.5912
rradius 42.9362
rwrist 40.7806
rhand -56.0829 -2.76058
rfingers 7.12502
rthumb -28.4154 -30.6234
lclavicle -9.30312e-014 2.22639e-014
lhumerus -22.8207 22.7979 50.6927
lradius 58.8262
lwrist -2.79355
lhand -25.7662 31.4487
lfingers 7.12502
lthumb 0.771553 61.427
rfemur -4.31321 -2.7863 15.7785
rtibia 26.6397
rfoot -22.5535 -13.7384
rtoes 0.861059
lfemur -16.8927 -6.02174 -9.81474
ltibia 36.1422
lfoot -18.819 -9.27118
ltoes -13.2094
1061
root 0.702038 17.5119 2.78414 0.112661 14.3561 -5.44884
lowerback 5.40562 5.95079 2.71564
upperback -0.737384 7.97981 -4.7258
thorax -2.72926 3.921 -6.98738
lowerneck -31.3356 -10.5374 -10.1746
upperneck 0.923991 -11.0908 12.1151
head 6.26394 -4.29418 4.06076
rclavicle 2.52457e-014 -3.18055e-015
rhumerus 73.409 -17.3087 -39.6632
rradius 43.2711
rwrist 41.2599
rhand -56.0897 -1.9633
rfingers 7.12502
rthumb -28.4219 -29.825
lclavicle 2.52457e-014 -3.18055e-015
lhumerus -23.5737 23.7449 50.3422
lradius 57.6307
lwrist -1.81366
lhand -27.0834 32.4718
lfingers 7.12502
lthumb -0.500622 62.451
rfemur -4.23892 -2.90646 15.8484
rtibia 26.4073
rfoot -22.4653 -13.8989
rtoes 0.45402
lfemur -17.0489 -6.07823 -9.73859
ltibia 36.1963
lfoot -18.846 -9.41782
ltoes -13.0713
1062
root 0.703934 17.5142 2.78963 0.156684 14.5438 -5.57079
lowerback 5.34575 5.9633 2.76979
upperback -0.76979 7.99656 -4.87018
thorax -2.69919 3.92941 -7.16435
lowerneck -31.3113 -10.6781 -10.0429
upperneck 0.970826 -11.3315 12.1064
head 6.29375 -4.40819 3.99697
rclavicle 1.57239e-013 -2.06736e-014
rhumerus 73.1519 -16.9922 -37.7598
rradius 43.618
rwrist 41.8171
rhand -56.025 -1.50449
rfingers 7.12502
rthumb -28.3601 -29.3765
lclavicle 1.57239e-013 -2.06736e-014
lhumerus -24.2832 24.6506 49.8427
lradius 56.3559
lwrist -1.2229
lhand -27.8291 33.1111
lfingers 7.12502
lthumb -1.22083 63.0874
rfemur -4.17742 -3.01532 15.9792
rtibia 26.2049
rfoot -22.4546 -13.9529
rtoes 0.641427
lfemur -17.1803 -6.15028 -9.59922
ltibia 36.2368
lfoot -18.9206 -9.50241
ltoes -12.806
1063
root 0.706801 17.5187 2.79299 0.213831 14.6976 -5.74677
lowerback 5.27275 5.98251 2.86863
upperback -0.804366 8.02631 -4.96087
thorax -2.66373 3.9438 -7.30878
lowerneck -31.1677 -10.829 -10.1595
upperneck 0.848248 -11.5212 12.3542
head 6.28216 -4.48431 4.06842
rclavicle -3.08116e-014 6.20208e-014
rhumerus 72.8367 -16.6342 -35.7495
rradius 43.9664
rwrist 42.1536
rhand -56.229 -0.833914
rfingers 7.12502
rthumb -28.5551 -28.6733
lclavicle -3.08116e-014 6.20208e-014
lhumerus -24.9782 25.6777 49.397
lradius 54.9904
lwrist -0.985401
lhand -27.9333 33.0419
lfingers 7.12502
lthumb -1.32146 63.0176
rfemur -4.16796 -3.11671 16.1611
rtibia 26.0481
rfoot -22.4793 -13.9605
rtoes 1.27091
lfemur -17.3003 -6.20286 -9.39186
ltibia 36.2448
lfoot -18.9289 -9.63385
ltoes -12.442
1064
root 0.709955 17.5231 2.80033 0.2436 14.763 -5.90322
lowerback 5.11359 6.00735 2.91936
upperback -0.744456 8.06227 -5.02434
thorax -2.49113 3.96894 -7.37894
lowerneck -31.0767 -10.9844 -10.3321
upperneck 0.580805 -11.6845 12.6933
head 6.23841 -4.5399 4.18426
rclavicle 6.81831e-014 1.74931e-014
rhumerus 72.5925 -16.3216 -33.854
rradius 44.4515
rwrist 42.5792
rhand -56.7843 -0.587683
rfingers 7.12502
rthumb -29.0855 -28.3367
lclavicle 6.81831e-014 1.74931e-014
lhumerus -25.6516 26.6132 48.9764
lradius 53.6831
lwrist -0.676304
lhand -27.7776 33.2988
lfingers 7.12502
lthumb -1.17115 63.2753
rfemur -4.15126 -3.17116 16.3206
rtibia 25.892
rfoot -22.3378 -14.0817
rtoes 1.13742
lfemur -17.356 -6.18106 -9.22318
ltibia 36.2436
lfoot -18.9766 -9.64832
ltoes -12.6197
1065
root 0.710916 17.5241 2.80628 0.29006 14.8546 -5.90439
lowerback 5.0261 6.01879 2.79835
upperback -0.697386 8.06854 -5.12288
thorax -2.3946 3.97837 -7.40052
lowerneck -31.0776 -11.1188 -10.3679
upperneck 0.476402 -11.8589 12.877
head 6.24119 -4.60776 4.2222
rclavicle -5.92378e-014 1.27222e-014
rhumerus 72.3855 -16.0275 -32.114
rradius 44.9655
rwrist 43.5665
rhand -57.3056 -1.93965
rfingers 7.12502
rthumb -29.5833 -29.6016
lclavicle -5.92378e-014 1.27222e-014
lhumerus -26.426 27.429 48.4913
lradius 52.4079
lwrist -0.620581
lhand -27.4811 33.4472
lfingers 7.12502
lthumb -0.884797 63.4251
rfemur -4.11008 -3.18947 16.3207
rtibia 25.7463
rfoot -22.3311 -14.1444
rtoes 1.30843
lfemur -17.4149 -6.185 -9.22256
ltibia 36.2421
lfoot -19.0183 -9.65887
ltoes -12.8734
1066
root 0.712426 17.5277 2.81139 0.359931 14.937 -5.9371
lowerback 4.88971 6.0957 2.72561
upperback -0.632837 8.16655 -5.21693
thorax -2.23334 4.03591 -7.43902
lowerneck -31.077 -11.3146 -10.3411
upperneck 0.386504 -12.1141 12.8712
head 6.23564 -4.72961 4.17375
rclavicle 4.96962e-015 4.29375e-014
rhumerus 72.0001 -15.8314 -30.3068
rradius 45.5262
rwrist 44.484
rhand -56.9872 -0.465336
rfingers 7.12502
rthumb -29.2793 -28.1807
lclavicle 4.96962e-015 4.29375e-014
lhumerus -26.9636 28.2887 48.2206
lradius 51.08
lwrist -0.780871
lhand -27.1837 33.7595
lfingers 7.12502
lthumb -0.597508 63.7384
rfemur -4.1097 -3.27415 16.3589
rtibia 25.6271
rfoot -22.3014 -14.1973
rtoes 1.1573
lfemur -17.4977 -6.17493 -9.16635
ltibia 36.2283
lfoot -18.9838 -9.80048
ltoes -12.2784
1067
root 0.71408 17.5294 2.8141 0.384939 15.0753 -6.12851
lowerback 4.77308 6.12725 2.82911
upperback -0.624923 8.21431 -5.28871
thorax -2.128 4.06313 -7.55703
lowerneck -30.9463 -11.4369 -10.3614
upperneck 0.290795 -12.2945 13.0472
head 6.22451 -4.80697 4.20712
rclavicle -3.85642e-014 1.59028e-015
rhumerus 71.565 -15.5097 -28.6356
rradius 46.0779
rwrist 45.2139
rhand -57.2321 0.65851
rfingers 7.12502
rthumb -29.513 -27.0158
lclavicle -3.85642e-014 1.59028e-015
lhumerus -27.5739 29.3375 47.7708
lradius 49.636
lwrist -1.4455
lhand -26.5618 33.7786
lfingers 7.12502
lthumb 0.00317177 63.7583
rfemur -4.11995 -3.45263 16.5659
rtibia 25.5375
rfoot -22.2272 -14.262
rtoes 1.0279
lfemur -17.619 -6.19952 -8.94477
ltibia 36.2361
lfoot -18.9794 -9.9188
ltoes -11.9639
1068
root 0.715226 17.5306 2.81598 0.418587 15.2072 -6.24029
lowerback 4.7299 6.11745 2.83527
upperback -0.742008 8.19745 -5.3694
thorax -2.21545 4.04927 -7.64921
lowerneck -30.4402 -11.4942 -10.5453
upperneck 0.0606484 -12.3937 13.4881
head 6.1483 -4.84443 4.37388
rclavicle 5.60573e-014 2.06736e-014
rhumerus 71.1085 -14.959 -27.035
rradius 46.6368
rwrist 45.9522
rhand -57.7227 1.26313
rfingers 7.12502
rthumb -29.9813 -26.3275
lclavicle 5.60573e-014 2.06736e-014
lhumerus -28.6354 29.9515 47.0579
lradius 48.386
lwrist -1.78625
lhand -25.9232 33.486
lfingers 7.12502
lthumb 0.619879 63.4648
rfemur -4.12149 -3.61155 16.6817
rtibia 25.4524
rfoot -22.1641 -14.3052
rtoes 0.853461
lfemur -17.7465 -6.26079 -8.81678
ltibia 36.2638
lfoot -19.0197 -10.0109
ltoes -11.7711
1069
root 0.716913 17.5313 2.81858 0.449869 15.2949 -6.34283
lowerback 4.63785 6.10199 2.8257
upperback -0.767185 8.17477 -5.40623
thorax -2.18956 4.03851 -7.67204
lowerneck -30.1635 -11.5849 -10.7251
upperneck -0.0776484 -12.5029 13.7762
head 6.11764 -4.8885 4.48321
rclavicle -5.38706e-014 -2.06736e-014
rhumerus 70.7782 -14.4845 -25.6
rradius 47.2916
rwrist 46.6717
rhand -58.0525 1.81527
rfingers 7.12502
rthumb -30.296 -25.718
lclavicle -5.38706e-014 -2.06736e-014
lhumerus -29.6065 29.9169 46.7703
lradius 47.4091
lwrist -0.628146
lhand -27.0255 34.3614
lfingers 7.12502
lthumb -0.444738 64.3406
rfemur -4.11503 -3.73409 16.7792
rtibia 25.3547
rfoot -22.1323 -14.2751
rtoes 0.940964
lfemur -17.8428 -6.29089 -8.70439
ltibia 36.3155
lfoot -19.0876 -10.0031
ltoes -11.8196
1070
root 0.717587 17.532 2.82128 0.450944 15.3715 -6.42048
lowerback 4.54245 6.04761 2.78575
upperback -0.609233 8.10311 -5.42776
thorax -1.98504 4.01371 -7.64494
lowerneck -30.5237 -11.6884 -10.7365
upperneck -0.0560818 -12.6071 13.8867
head 6.19382 -4.91103 4.4975
rclavicle 1.19271e-015 -1.59028e-014
rhumerus 70.6814 -14.2496 -24.1253
rradius 47.8014
rwrist 46.9589
rhand -58.3673 2.23186
rfingers 7.12502
rthumb -30.5962 -25.2458
lclavicle 1.19271e-015 -1.59028e-014
lhumerus -30.2565 30.1249 46.7679
lradius 46.4829
lwrist 0.630468
lhand -28.3349 35.7941
lfingers 7.12502
lthumb -1.70937 65.767
rfemur -4.0797 -3.7715 16.8642
rtibia 25.2693
rfoot -22.0839 -14.3473
rtoes 0.85063
lfemur -17.8839 -6.31767 -8.60975
ltibia 36.3561
lfoot -19.1178 -10.0041
ltoes -11.6616
1071
root 0.716619 17.5322 2.82144 0.381568 15.485 -6.57702
lowerback 4.54603 6.00485 2.78446
upperback -0.511886 8.04859 -5.39217
thorax -1.89931 3.99117 -7.59778
lowerneck -30.5344 -11.7825 -10.8897
upperneck -0.19357 -12.6894 14.1423
head 6.19321 -4.93093 4.59235
rclavicle -6.04305e-014 6.36111e-015
rhumerus 70.4845 -13.9223 -22.6196
rradius 48.2608
rwrist 47.3843
rhand -58.613 1.88828
rfingers 7.12502
rthumb -30.8305 -25.5454
lclavicle -6.04305e-014 6.36111e-015
lhumerus -31.0305 30.6839 46.4407
lradius 45.1954
lwrist 0.298882
lhand -27.4481 35.1327
lfingers 7.12502
lthumb -0.85289 65.1107
rfemur -3.99856 -3.80303 17.0291
rtibia 25.1889
rfoot -22.1185 -14.3463
rtoes 1.05017
lfemur -17.9182 -6.32806 -8.43239
ltibia 36.4045
lfoot -19.167 -10.1183
ltoes -11.5533
1072
root 0.716006 17.5308 2.82033 0.313121 15.6187 -6.64277
lowerback 4.6058 5.99381 2.75494
upperback -0.51569 8.03152 -5.4309
thorax -1.93755 3.98164 -7.62996
lowerneck -30.1418 -11.9001 -11.0029
upperneck -0.415373 -12.8568 14.3882
head 6.12067 -5.01349 4.67001
rclavicle -3.61788e-014 5.40694e-014
rhumerus 70.0777 -13.4494 -21.3979
rradius 48.865
rwrist 47.7713
rhand -58.6791 1.9013
rfingers 7.12502
rthumb -30.8935 -25.5204
lclavicle -3.61788e-014 5.40694e-014
lhumerus -31.8838 30.9819 45.8788
lradius 43.783
lwrist -0.485979
lhand -26.1866 34.0237
lfingers 7.12502
lthumb 0.365495 64.0032
rfemur -3.9061 -3.88086 17.0932
rtibia 25.1299
rfoot -22.0963 -14.3754
rtoes 1.05981
lfemur -17.9385 -6.35105 -8.354
ltibia 36.4409
lfoot -19.1842 -10.2969
ltoes -11.5931
1073
root 0.715287 17.5303 2.81966 0.274449 15.7641 -6.73895
lowerback 4.60537 5.9865 2.75878
upperback -0.527714 8.02114 -5.4752
thorax -1.9444 3.97615 -7.67955
lowerneck -29.809 -12.0267 -11.0135
upperneck -0.532429 -13.0558 14.446
head 6.06885 -5.12213 4.66256
rclavicle 1.43523e-013 -4.92986e-014
rhumerus 69.622 -13.0037 -20.1718
rradius 49.3858
rwrist 47.9357
rhand -58.9408 2.24538
rfingers 7.12502
rthumb -31.1429 -25.1288
lclavicle 1.43523e-013 -4.92986e-014
lhumerus -32.6539 30.9486 45.5325
lradius 42.5686
lwrist -0.655723
lhand -25.5528 33.9279
lfingers 7.12502
lthumb 0.977684 63.9054
rfemur -3.83795 -3.95337 17.1921
rtibia 25.0818
rfoot -22.1756 -14.3364
rtoes 1.30229
lfemur -18 -6.403 -8.2423
ltibia 36.4839
lfoot -19.2499 -10.3343
ltoes -11.7727
1074
root 0.715164 17.5297 2.81767 0.267119 15.8069 -6.7544
lowerback 4.58697 5.97983 2.68671
upperback -0.460766 8.0092 -5.52121
thorax -1.86946 3.97509 -7.67998
lowerneck -29.7043 -12.1081 -10.9779
upperneck -0.713667 -13.1769 14.5358
head 6.01716 -5.18058 4.66972
rclavicle -1.31198e-014 6.36111e-014
rhumerus 69.3637 -12.6752 -19.0918
rradius 49.7802
rwrist 48.23
rhand -59.1043 2.72978
rfingers 7.12502
rthumb -31.2987 -24.6143
lclavicle -1.31198e-014 6.36111e-014
lhumerus -33.3145 31.1865 45.3471
lradius 41.4694
lwrist -0.766431
lhand -24.5414 33.2039
lfingers 7.12502
lthumb 1.95452 63.1747
rfemur -3.82212 -4.00845 17.1905
rtibia 25.0683
rfoot -22.195 -14.2433
rtoes 1.45872
lfemur -18.0315 -6.43384 -8.21776
ltibia 36.5268
lfoot -19.3307 -10.2619
ltoes -11.7849
